<svg xmlns="http://www.w3.org/2000/svg" viewBox="12 26 384 192" width="384" height="192">
<rect x="12" y="26" width="384" height="192" rx="8" fill="#120f0d" stroke="#4b3327"/>
<rect x="66" y="56" width="3" height="3" fill="#ffb26b"/>
<rect x="60" y="59" width="3" height="3" fill="#ffb26b"/>
<rect x="66" y="59" width="3" height="3" fill="#ffb26b"/>
<rect x="66" y="62" width="3" height="3" fill="#ffb26b"/>
<rect x="57" y="65" width="3" height="3" fill="#ffb26b"/>
<rect x="60" y="65" width="3" height="3" fill="#ffb26b"/>
<rect x="63" y="65" width="3" height="3" fill="#ffb26b"/>
<rect x="66" y="65" width="3" height="3" fill="#ffb26b"/>
<rect x="69" y="65" width="3" height="3" fill="#ffb26b"/>
<rect x="72" y="65" width="3" height="3" fill="#ffb26b"/>
<rect x="75" y="65" width="3" height="3" fill="#ffb26b"/>
<rect x="66" y="68" width="3" height="3" fill="#ffb26b"/>
<rect x="66" y="71" width="3" height="3" fill="#ffb26b"/>
<rect x="72" y="71" width="3" height="3" fill="#ffb26b"/>
<rect x="66" y="74" width="3" height="3" fill="#ffb26b"/>
<rect x="123" y="104" width="3" height="3" fill="#ffb26b"/>
<rect x="126" y="104" width="3" height="3" fill="#ffb26b"/>
<rect x="129" y="104" width="3" height="3" fill="#ffb26b"/>
<rect x="132" y="104" width="3" height="3" fill="#ffb26b"/>
<rect x="135" y="104" width="3" height="3" fill="#ffb26b"/>
<rect x="138" y="104" width="3" height="3" fill="#ffb26b"/>
<rect x="141" y="104" width="3" height="3" fill="#ffb26b"/>
<rect x="144" y="104" width="3" height="3" fill="#ffb26b"/>
<rect x="147" y="104" width="3" height="3" fill="#ffb26b"/>
<rect x="150" y="104" width="3" height="3" fill="#ffb26b"/>
<rect x="153" y="104" width="3" height="3" fill="#ffb26b"/>
<rect x="255" y="104" width="3" height="3" fill="#ffb26b"/>
<rect x="258" y="104" width="3" height="3" fill="#ffb26b"/>
<rect x="261" y="104" width="3" height="3" fill="#ffb26b"/>
<rect x="264" y="104" width="3" height="3" fill="#ffb26b"/>
<rect x="267" y="104" width="3" height="3" fill="#ffb26b"/>
<rect x="270" y="104" width="3" height="3" fill="#ffb26b"/>
<rect x="273" y="104" width="3" height="3" fill="#ffb26b"/>
<rect x="276" y="104" width="3" height="3" fill="#ffb26b"/>
<rect x="279" y="104" width="3" height="3" fill="#ffb26b"/>
<rect x="282" y="104" width="3" height="3" fill="#ffb26b"/>
<rect x="285" y="104" width="3" height="3" fill="#ffb26b"/>
<rect x="117" y="107" width="3" height="3" fill="#ffb26b"/>
<rect x="120" y="107" width="3" height="3" fill="#ffb26b"/>
<rect x="123" y="107" width="3" height="3" fill="#ffb26b"/>
<rect x="135" y="107" width="3" height="3" fill="#ffb26b"/>
<rect x="138" y="107" width="3" height="3" fill="#ffb26b"/>
<rect x="141" y="107" width="3" height="3" fill="#ffb26b"/>
<rect x="153" y="107" width="3" height="3" fill="#ffb26b"/>
<rect x="156" y="107" width="3" height="3" fill="#ffb26b"/>
<rect x="159" y="107" width="3" height="3" fill="#ffb26b"/>
<rect x="249" y="107" width="3" height="3" fill="#ffb26b"/>
<rect x="252" y="107" width="3" height="3" fill="#ffb26b"/>
<rect x="255" y="107" width="3" height="3" fill="#ffb26b"/>
<rect x="267" y="107" width="3" height="3" fill="#ffb26b"/>
<rect x="270" y="107" width="3" height="3" fill="#ffb26b"/>
<rect x="273" y="107" width="3" height="3" fill="#ffb26b"/>
<rect x="285" y="107" width="3" height="3" fill="#ffb26b"/>
<rect x="288" y="107" width="3" height="3" fill="#ffb26b"/>
<rect x="291" y="107" width="3" height="3" fill="#ffb26b"/>
<rect x="114" y="110" width="3" height="3" fill="#ffb26b"/>
<rect x="117" y="110" width="3" height="3" fill="#ffb26b"/>
<rect x="132" y="110" width="3" height="3" fill="#ffb26b"/>
<rect x="138" y="110" width="3" height="3" fill="#ffb26b"/>
<rect x="141" y="110" width="3" height="3" fill="#ffb26b"/>
<rect x="144" y="110" width="3" height="3" fill="#ffb26b"/>
<rect x="159" y="110" width="3" height="3" fill="#ffb26b"/>
<rect x="162" y="110" width="3" height="3" fill="#ffb26b"/>
<rect x="246" y="110" width="3" height="3" fill="#ffb26b"/>
<rect x="249" y="110" width="3" height="3" fill="#ffb26b"/>
<rect x="264" y="110" width="3" height="3" fill="#ffb26b"/>
<rect x="270" y="110" width="3" height="3" fill="#ffb26b"/>
<rect x="273" y="110" width="3" height="3" fill="#ffb26b"/>
<rect x="276" y="110" width="3" height="3" fill="#ffb26b"/>
<rect x="291" y="110" width="3" height="3" fill="#ffb26b"/>
<rect x="294" y="110" width="3" height="3" fill="#ffb26b"/>
<rect x="111" y="113" width="3" height="3" fill="#ffb26b"/>
<rect x="114" y="113" width="3" height="3" fill="#ffb26b"/>
<rect x="132" y="113" width="3" height="3" fill="#ffb26b"/>
<rect x="135" y="113" width="3" height="3" fill="#ffb26b"/>
<rect x="138" y="113" width="3" height="3" fill="#ffb26b"/>
<rect x="141" y="113" width="3" height="3" fill="#ffb26b"/>
<rect x="144" y="113" width="3" height="3" fill="#ffb26b"/>
<rect x="162" y="113" width="3" height="3" fill="#ffb26b"/>
<rect x="165" y="113" width="3" height="3" fill="#ffb26b"/>
<rect x="243" y="113" width="3" height="3" fill="#ffb26b"/>
<rect x="246" y="113" width="3" height="3" fill="#ffb26b"/>
<rect x="264" y="113" width="3" height="3" fill="#ffb26b"/>
<rect x="267" y="113" width="3" height="3" fill="#ffb26b"/>
<rect x="270" y="113" width="3" height="3" fill="#ffb26b"/>
<rect x="273" y="113" width="3" height="3" fill="#ffb26b"/>
<rect x="276" y="113" width="3" height="3" fill="#ffb26b"/>
<rect x="294" y="113" width="3" height="3" fill="#ffb26b"/>
<rect x="297" y="113" width="3" height="3" fill="#ffb26b"/>
<rect x="111" y="116" width="3" height="3" fill="#ffb26b"/>
<rect x="114" y="116" width="3" height="3" fill="#ffb26b"/>
<rect x="129" y="116" width="3" height="3" fill="#ffb26b"/>
<rect x="132" y="116" width="3" height="3" fill="#ffb26b"/>
<rect x="135" y="116" width="3" height="3" fill="#ffb26b"/>
<rect x="138" y="116" width="3" height="3" fill="#ffb26b"/>
<rect x="141" y="116" width="3" height="3" fill="#ffb26b"/>
<rect x="144" y="116" width="3" height="3" fill="#ffb26b"/>
<rect x="147" y="116" width="3" height="3" fill="#ffb26b"/>
<rect x="162" y="116" width="3" height="3" fill="#ffb26b"/>
<rect x="165" y="116" width="3" height="3" fill="#ffb26b"/>
<rect x="243" y="116" width="3" height="3" fill="#ffb26b"/>
<rect x="246" y="116" width="3" height="3" fill="#ffb26b"/>
<rect x="261" y="116" width="3" height="3" fill="#ffb26b"/>
<rect x="264" y="116" width="3" height="3" fill="#ffb26b"/>
<rect x="267" y="116" width="3" height="3" fill="#ffb26b"/>
<rect x="270" y="116" width="3" height="3" fill="#ffb26b"/>
<rect x="273" y="116" width="3" height="3" fill="#ffb26b"/>
<rect x="276" y="116" width="3" height="3" fill="#ffb26b"/>
<rect x="279" y="116" width="3" height="3" fill="#ffb26b"/>
<rect x="294" y="116" width="3" height="3" fill="#ffb26b"/>
<rect x="297" y="116" width="3" height="3" fill="#ffb26b"/>
<rect x="111" y="119" width="3" height="3" fill="#ffb26b"/>
<rect x="114" y="119" width="3" height="3" fill="#ffb26b"/>
<rect x="132" y="119" width="3" height="3" fill="#ffb26b"/>
<rect x="135" y="119" width="3" height="3" fill="#ffb26b"/>
<rect x="138" y="119" width="3" height="3" fill="#ffb26b"/>
<rect x="141" y="119" width="3" height="3" fill="#ffb26b"/>
<rect x="144" y="119" width="3" height="3" fill="#ffb26b"/>
<rect x="162" y="119" width="3" height="3" fill="#ffb26b"/>
<rect x="165" y="119" width="3" height="3" fill="#ffb26b"/>
<rect x="243" y="119" width="3" height="3" fill="#ffb26b"/>
<rect x="246" y="119" width="3" height="3" fill="#ffb26b"/>
<rect x="264" y="119" width="3" height="3" fill="#ffb26b"/>
<rect x="267" y="119" width="3" height="3" fill="#ffb26b"/>
<rect x="270" y="119" width="3" height="3" fill="#ffb26b"/>
<rect x="273" y="119" width="3" height="3" fill="#ffb26b"/>
<rect x="276" y="119" width="3" height="3" fill="#ffb26b"/>
<rect x="294" y="119" width="3" height="3" fill="#ffb26b"/>
<rect x="297" y="119" width="3" height="3" fill="#ffb26b"/>
<rect x="114" y="122" width="3" height="3" fill="#ffb26b"/>
<rect x="117" y="122" width="3" height="3" fill="#ffb26b"/>
<rect x="132" y="122" width="3" height="3" fill="#ffb26b"/>
<rect x="135" y="122" width="3" height="3" fill="#ffb26b"/>
<rect x="138" y="122" width="3" height="3" fill="#ffb26b"/>
<rect x="141" y="122" width="3" height="3" fill="#ffb26b"/>
<rect x="144" y="122" width="3" height="3" fill="#ffb26b"/>
<rect x="159" y="122" width="3" height="3" fill="#ffb26b"/>
<rect x="162" y="122" width="3" height="3" fill="#ffb26b"/>
<rect x="246" y="122" width="3" height="3" fill="#ffb26b"/>
<rect x="249" y="122" width="3" height="3" fill="#ffb26b"/>
<rect x="264" y="122" width="3" height="3" fill="#ffb26b"/>
<rect x="267" y="122" width="3" height="3" fill="#ffb26b"/>
<rect x="270" y="122" width="3" height="3" fill="#ffb26b"/>
<rect x="273" y="122" width="3" height="3" fill="#ffb26b"/>
<rect x="276" y="122" width="3" height="3" fill="#ffb26b"/>
<rect x="291" y="122" width="3" height="3" fill="#ffb26b"/>
<rect x="294" y="122" width="3" height="3" fill="#ffb26b"/>
<rect x="117" y="125" width="3" height="3" fill="#ffb26b"/>
<rect x="120" y="125" width="3" height="3" fill="#ffb26b"/>
<rect x="123" y="125" width="3" height="3" fill="#ffb26b"/>
<rect x="135" y="125" width="3" height="3" fill="#ffb26b"/>
<rect x="138" y="125" width="3" height="3" fill="#ffb26b"/>
<rect x="141" y="125" width="3" height="3" fill="#ffb26b"/>
<rect x="153" y="125" width="3" height="3" fill="#ffb26b"/>
<rect x="156" y="125" width="3" height="3" fill="#ffb26b"/>
<rect x="159" y="125" width="3" height="3" fill="#ffb26b"/>
<rect x="249" y="125" width="3" height="3" fill="#ffb26b"/>
<rect x="252" y="125" width="3" height="3" fill="#ffb26b"/>
<rect x="255" y="125" width="3" height="3" fill="#ffb26b"/>
<rect x="267" y="125" width="3" height="3" fill="#ffb26b"/>
<rect x="270" y="125" width="3" height="3" fill="#ffb26b"/>
<rect x="273" y="125" width="3" height="3" fill="#ffb26b"/>
<rect x="285" y="125" width="3" height="3" fill="#ffb26b"/>
<rect x="288" y="125" width="3" height="3" fill="#ffb26b"/>
<rect x="291" y="125" width="3" height="3" fill="#ffb26b"/>
<rect x="123" y="128" width="3" height="3" fill="#ffb26b"/>
<rect x="126" y="128" width="3" height="3" fill="#ffb26b"/>
<rect x="129" y="128" width="3" height="3" fill="#ffb26b"/>
<rect x="132" y="128" width="3" height="3" fill="#ffb26b"/>
<rect x="135" y="128" width="3" height="3" fill="#ffb26b"/>
<rect x="138" y="128" width="3" height="3" fill="#ffb26b"/>
<rect x="141" y="128" width="3" height="3" fill="#ffb26b"/>
<rect x="144" y="128" width="3" height="3" fill="#ffb26b"/>
<rect x="147" y="128" width="3" height="3" fill="#ffb26b"/>
<rect x="150" y="128" width="3" height="3" fill="#ffb26b"/>
<rect x="153" y="128" width="3" height="3" fill="#ffb26b"/>
<rect x="255" y="128" width="3" height="3" fill="#ffb26b"/>
<rect x="258" y="128" width="3" height="3" fill="#ffb26b"/>
<rect x="261" y="128" width="3" height="3" fill="#ffb26b"/>
<rect x="264" y="128" width="3" height="3" fill="#ffb26b"/>
<rect x="267" y="128" width="3" height="3" fill="#ffb26b"/>
<rect x="270" y="128" width="3" height="3" fill="#ffb26b"/>
<rect x="273" y="128" width="3" height="3" fill="#ffb26b"/>
<rect x="276" y="128" width="3" height="3" fill="#ffb26b"/>
<rect x="279" y="128" width="3" height="3" fill="#ffb26b"/>
<rect x="282" y="128" width="3" height="3" fill="#ffb26b"/>
<rect x="285" y="128" width="3" height="3" fill="#ffb26b"/>
<rect x="99" y="140" width="3" height="3" fill="#ffb26b"/>
<rect x="102" y="140" width="3" height="3" fill="#ffb26b"/>
<rect x="309" y="140" width="3" height="3" fill="#ffb26b"/>
<rect x="312" y="140" width="3" height="3" fill="#ffb26b"/>
<rect x="90" y="143" width="3" height="3" fill="#ffb26b"/>
<rect x="93" y="143" width="3" height="3" fill="#ffb26b"/>
<rect x="96" y="143" width="3" height="3" fill="#ffb26b"/>
<rect x="315" y="143" width="3" height="3" fill="#ffb26b"/>
<rect x="318" y="143" width="3" height="3" fill="#ffb26b"/>
<rect x="321" y="143" width="3" height="3" fill="#ffb26b"/>
<rect x="81" y="146" width="3" height="3" fill="#ffb26b"/>
<rect x="84" y="146" width="3" height="3" fill="#ffb26b"/>
<rect x="87" y="146" width="3" height="3" fill="#ffb26b"/>
<rect x="324" y="146" width="3" height="3" fill="#ffb26b"/>
<rect x="327" y="146" width="3" height="3" fill="#ffb26b"/>
<rect x="330" y="146" width="3" height="3" fill="#ffb26b"/>
<rect x="75" y="149" width="3" height="3" fill="#ffb26b"/>
<rect x="78" y="149" width="3" height="3" fill="#ffb26b"/>
<rect x="333" y="149" width="3" height="3" fill="#ffb26b"/>
<rect x="336" y="149" width="3" height="3" fill="#ffb26b"/>
<rect x="165" y="164" width="3" height="3" fill="#ffb26b"/>
<rect x="243" y="164" width="3" height="3" fill="#ffb26b"/>
<rect x="165" y="167" width="3" height="3" fill="#ffb26b"/>
<rect x="168" y="167" width="3" height="3" fill="#ffb26b"/>
<rect x="240" y="167" width="3" height="3" fill="#ffb26b"/>
<rect x="243" y="167" width="3" height="3" fill="#ffb26b"/>
<rect x="168" y="170" width="3" height="3" fill="#ffb26b"/>
<rect x="171" y="170" width="3" height="3" fill="#ffb26b"/>
<rect x="237" y="170" width="3" height="3" fill="#ffb26b"/>
<rect x="240" y="170" width="3" height="3" fill="#ffb26b"/>
<rect x="174" y="173" width="3" height="3" fill="#ffb26b"/>
<rect x="177" y="173" width="3" height="3" fill="#ffb26b"/>
<rect x="231" y="173" width="3" height="3" fill="#ffb26b"/>
<rect x="234" y="173" width="3" height="3" fill="#ffb26b"/>
<rect x="237" y="173" width="3" height="3" fill="#ffb26b"/>
<rect x="180" y="176" width="3" height="3" fill="#ffb26b"/>
<rect x="183" y="176" width="3" height="3" fill="#ffb26b"/>
<rect x="186" y="176" width="3" height="3" fill="#ffb26b"/>
<rect x="189" y="176" width="3" height="3" fill="#ffb26b"/>
<rect x="219" y="176" width="3" height="3" fill="#ffb26b"/>
<rect x="222" y="176" width="3" height="3" fill="#ffb26b"/>
<rect x="225" y="176" width="3" height="3" fill="#ffb26b"/>
<rect x="228" y="176" width="3" height="3" fill="#ffb26b"/>
<rect x="231" y="176" width="3" height="3" fill="#ffb26b"/>
<rect x="189" y="179" width="3" height="3" fill="#ffb26b"/>
<rect x="192" y="179" width="3" height="3" fill="#ffb26b"/>
<rect x="195" y="179" width="3" height="3" fill="#ffb26b"/>
<rect x="198" y="179" width="3" height="3" fill="#ffb26b"/>
<rect x="201" y="179" width="3" height="3" fill="#ffb26b"/>
<rect x="204" y="179" width="3" height="3" fill="#ffb26b"/>
<rect x="207" y="179" width="3" height="3" fill="#ffb26b"/>
<rect x="210" y="179" width="3" height="3" fill="#ffb26b"/>
<rect x="213" y="179" width="3" height="3" fill="#ffb26b"/>
<rect x="216" y="179" width="3" height="3" fill="#ffb26b"/>
<rect x="219" y="179" width="3" height="3" fill="#ffb26b"/>
<rect x="171" y="191" width="3" height="3" fill="#ffb26b"/>
<rect x="174" y="191" width="3" height="3" fill="#ffb26b"/>
<rect x="183" y="191" width="3" height="3" fill="#ffb26b"/>
<rect x="186" y="191" width="3" height="3" fill="#ffb26b"/>
<rect x="189" y="191" width="3" height="3" fill="#ffb26b"/>
<rect x="201" y="191" width="3" height="3" fill="#ffb26b"/>
<rect x="204" y="191" width="3" height="3" fill="#ffb26b"/>
<rect x="207" y="191" width="3" height="3" fill="#ffb26b"/>
<rect x="216" y="191" width="3" height="3" fill="#ffb26b"/>
<rect x="219" y="191" width="3" height="3" fill="#ffb26b"/>
<rect x="168" y="194" width="3" height="3" fill="#ffb26b"/>
<rect x="177" y="194" width="3" height="3" fill="#ffb26b"/>
<rect x="183" y="194" width="3" height="3" fill="#ffb26b"/>
<rect x="192" y="194" width="3" height="3" fill="#ffb26b"/>
<rect x="198" y="194" width="3" height="3" fill="#ffb26b"/>
<rect x="213" y="194" width="3" height="3" fill="#ffb26b"/>
<rect x="222" y="194" width="3" height="3" fill="#ffb26b"/>
<rect x="168" y="197" width="3" height="3" fill="#ffb26b"/>
<rect x="171" y="197" width="3" height="3" fill="#ffb26b"/>
<rect x="174" y="197" width="3" height="3" fill="#ffb26b"/>
<rect x="177" y="197" width="3" height="3" fill="#ffb26b"/>
<rect x="183" y="197" width="3" height="3" fill="#ffb26b"/>
<rect x="186" y="197" width="3" height="3" fill="#ffb26b"/>
<rect x="189" y="197" width="3" height="3" fill="#ffb26b"/>
<rect x="198" y="197" width="3" height="3" fill="#ffb26b"/>
<rect x="213" y="197" width="3" height="3" fill="#ffb26b"/>
<rect x="216" y="197" width="3" height="3" fill="#ffb26b"/>
<rect x="219" y="197" width="3" height="3" fill="#ffb26b"/>
<rect x="222" y="197" width="3" height="3" fill="#ffb26b"/>
<rect x="168" y="200" width="3" height="3" fill="#ffb26b"/>
<rect x="177" y="200" width="3" height="3" fill="#ffb26b"/>
<rect x="183" y="200" width="3" height="3" fill="#ffb26b"/>
<rect x="189" y="200" width="3" height="3" fill="#ffb26b"/>
<rect x="198" y="200" width="3" height="3" fill="#ffb26b"/>
<rect x="213" y="200" width="3" height="3" fill="#ffb26b"/>
<rect x="222" y="200" width="3" height="3" fill="#ffb26b"/>
<rect x="168" y="203" width="3" height="3" fill="#ffb26b"/>
<rect x="177" y="203" width="3" height="3" fill="#ffb26b"/>
<rect x="183" y="203" width="3" height="3" fill="#ffb26b"/>
<rect x="192" y="203" width="3" height="3" fill="#ffb26b"/>
<rect x="201" y="203" width="3" height="3" fill="#ffb26b"/>
<rect x="204" y="203" width="3" height="3" fill="#ffb26b"/>
<rect x="207" y="203" width="3" height="3" fill="#ffb26b"/>
<rect x="213" y="203" width="3" height="3" fill="#ffb26b"/>
<rect x="222" y="203" width="3" height="3" fill="#ffb26b"/>
</svg>
