solid arca-core-v0-mini-tray-48x36x16
  facet normal 0 0 -1
    outer loop
      vertex -24 -18 0
      vertex 24 18 0
      vertex 24 -18 0
    endloop
  endfacet
  facet normal 0 0 -1
    outer loop
      vertex -24 -18 0
      vertex -24 18 0
      vertex 24 18 0
    endloop
  endfacet
  facet normal 0 0 1
    outer loop
      vertex -24 -18 2.2
      vertex 24 -18 2.2
      vertex 24 18 2.2
    endloop
  endfacet
  facet normal 0 0 1
    outer loop
      vertex -24 -18 2.2
      vertex 24 18 2.2
      vertex -24 18 2.2
    endloop
  endfacet
  facet normal 0 -1 0
    outer loop
      vertex -24 -18 0
      vertex 24 -18 2.2
      vertex -24 -18 2.2
    endloop
  endfacet
  facet normal 0 -1 0
    outer loop
      vertex -24 -18 0
      vertex 24 -18 0
      vertex 24 -18 2.2
    endloop
  endfacet
  facet normal 0 1 0
    outer loop
      vertex -24 18 0
      vertex -24 18 2.2
      vertex 24 18 2.2
    endloop
  endfacet
  facet normal 0 1 0
    outer loop
      vertex -24 18 0
      vertex 24 18 2.2
      vertex 24 18 0
    endloop
  endfacet
  facet normal -1 0 0
    outer loop
      vertex -24 -18 0
      vertex -24 -18 2.2
      vertex -24 18 2.2
    endloop
  endfacet
  facet normal -1 0 0
    outer loop
      vertex -24 -18 0
      vertex -24 18 2.2
      vertex -24 18 0
    endloop
  endfacet
  facet normal 1 0 0
    outer loop
      vertex 24 -18 0
      vertex 24 18 0
      vertex 24 18 2.2
    endloop
  endfacet
  facet normal 1 0 0
    outer loop
      vertex 24 -18 0
      vertex 24 18 2.2
      vertex 24 -18 2.2
    endloop
  endfacet
  facet normal 0 0 -1
    outer loop
      vertex -24 -18 0
      vertex -21.6 18 0
      vertex -21.6 -18 0
    endloop
  endfacet
  facet normal 0 0 -1
    outer loop
      vertex -24 -18 0
      vertex -24 18 0
      vertex -21.6 18 0
    endloop
  endfacet
  facet normal 0 0 1
    outer loop
      vertex -24 -18 16
      vertex -21.6 -18 16
      vertex -21.6 18 16
    endloop
  endfacet
  facet normal 0 0 1
    outer loop
      vertex -24 -18 16
      vertex -21.6 18 16
      vertex -24 18 16
    endloop
  endfacet
  facet normal 0 -1 0
    outer loop
      vertex -24 -18 0
      vertex -21.6 -18 16
      vertex -24 -18 16
    endloop
  endfacet
  facet normal 0 -1 0
    outer loop
      vertex -24 -18 0
      vertex -21.6 -18 0
      vertex -21.6 -18 16
    endloop
  endfacet
  facet normal 0 1 0
    outer loop
      vertex -24 18 0
      vertex -24 18 16
      vertex -21.6 18 16
    endloop
  endfacet
  facet normal 0 1 0
    outer loop
      vertex -24 18 0
      vertex -21.6 18 16
      vertex -21.6 18 0
    endloop
  endfacet
  facet normal -1 0 0
    outer loop
      vertex -24 -18 0
      vertex -24 -18 16
      vertex -24 18 16
    endloop
  endfacet
  facet normal -1 0 0
    outer loop
      vertex -24 -18 0
      vertex -24 18 16
      vertex -24 18 0
    endloop
  endfacet
  facet normal 1 0 0
    outer loop
      vertex -21.6 -18 0
      vertex -21.6 18 0
      vertex -21.6 18 16
    endloop
  endfacet
  facet normal 1 0 0
    outer loop
      vertex -21.6 -18 0
      vertex -21.6 18 16
      vertex -21.6 -18 16
    endloop
  endfacet
  facet normal 0 0 -1
    outer loop
      vertex 21.6 -18 0
      vertex 24 18 0
      vertex 24 -18 0
    endloop
  endfacet
  facet normal 0 0 -1
    outer loop
      vertex 21.6 -18 0
      vertex 21.6 18 0
      vertex 24 18 0
    endloop
  endfacet
  facet normal 0 0 1
    outer loop
      vertex 21.6 -18 16
      vertex 24 -18 16
      vertex 24 18 16
    endloop
  endfacet
  facet normal 0 0 1
    outer loop
      vertex 21.6 -18 16
      vertex 24 18 16
      vertex 21.6 18 16
    endloop
  endfacet
  facet normal 0 -1 0
    outer loop
      vertex 21.6 -18 0
      vertex 24 -18 16
      vertex 21.6 -18 16
    endloop
  endfacet
  facet normal 0 -1 0
    outer loop
      vertex 21.6 -18 0
      vertex 24 -18 0
      vertex 24 -18 16
    endloop
  endfacet
  facet normal 0 1 0
    outer loop
      vertex 21.6 18 0
      vertex 21.6 18 16
      vertex 24 18 16
    endloop
  endfacet
  facet normal 0 1 0
    outer loop
      vertex 21.6 18 0
      vertex 24 18 16
      vertex 24 18 0
    endloop
  endfacet
  facet normal -1 0 0
    outer loop
      vertex 21.6 -18 0
      vertex 21.6 -18 16
      vertex 21.6 18 16
    endloop
  endfacet
  facet normal -1 0 0
    outer loop
      vertex 21.6 -18 0
      vertex 21.6 18 16
      vertex 21.6 18 0
    endloop
  endfacet
  facet normal 1 0 0
    outer loop
      vertex 24 -18 0
      vertex 24 18 0
      vertex 24 18 16
    endloop
  endfacet
  facet normal 1 0 0
    outer loop
      vertex 24 -18 0
      vertex 24 18 16
      vertex 24 -18 16
    endloop
  endfacet
  facet normal 0 0 -1
    outer loop
      vertex -24 -18 0
      vertex 24 -15.600000000000001 0
      vertex 24 -18 0
    endloop
  endfacet
  facet normal 0 0 -1
    outer loop
      vertex -24 -18 0
      vertex -24 -15.600000000000001 0
      vertex 24 -15.600000000000001 0
    endloop
  endfacet
  facet normal 0 0 1
    outer loop
      vertex -24 -18 16
      vertex 24 -18 16
      vertex 24 -15.600000000000001 16
    endloop
  endfacet
  facet normal 0 0 1
    outer loop
      vertex -24 -18 16
      vertex 24 -15.600000000000001 16
      vertex -24 -15.600000000000001 16
    endloop
  endfacet
  facet normal 0 -1 0
    outer loop
      vertex -24 -18 0
      vertex 24 -18 16
      vertex -24 -18 16
    endloop
  endfacet
  facet normal 0 -1 0
    outer loop
      vertex -24 -18 0
      vertex 24 -18 0
      vertex 24 -18 16
    endloop
  endfacet
  facet normal 0 1 0
    outer loop
      vertex -24 -15.600000000000001 0
      vertex -24 -15.600000000000001 16
      vertex 24 -15.600000000000001 16
    endloop
  endfacet
  facet normal 0 1 0
    outer loop
      vertex -24 -15.600000000000001 0
      vertex 24 -15.600000000000001 16
      vertex 24 -15.600000000000001 0
    endloop
  endfacet
  facet normal -1 0 0
    outer loop
      vertex -24 -18 0
      vertex -24 -18 16
      vertex -24 -15.600000000000001 16
    endloop
  endfacet
  facet normal -1 0 0
    outer loop
      vertex -24 -18 0
      vertex -24 -15.600000000000001 16
      vertex -24 -15.600000000000001 0
    endloop
  endfacet
  facet normal 1 0 0
    outer loop
      vertex 24 -18 0
      vertex 24 -15.600000000000001 0
      vertex 24 -15.600000000000001 16
    endloop
  endfacet
  facet normal 1 0 0
    outer loop
      vertex 24 -18 0
      vertex 24 -15.600000000000001 16
      vertex 24 -18 16
    endloop
  endfacet
  facet normal 0 0 -1
    outer loop
      vertex -24 15.600000000000001 0
      vertex -9 18 0
      vertex -9 15.600000000000001 0
    endloop
  endfacet
  facet normal 0 0 -1
    outer loop
      vertex -24 15.600000000000001 0
      vertex -24 18 0
      vertex -9 18 0
    endloop
  endfacet
  facet normal 0 0 1
    outer loop
      vertex -24 15.600000000000001 16
      vertex -9 15.600000000000001 16
      vertex -9 18 16
    endloop
  endfacet
  facet normal 0 0 1
    outer loop
      vertex -24 15.600000000000001 16
      vertex -9 18 16
      vertex -24 18 16
    endloop
  endfacet
  facet normal 0 -1 0
    outer loop
      vertex -24 15.600000000000001 0
      vertex -9 15.600000000000001 16
      vertex -24 15.600000000000001 16
    endloop
  endfacet
  facet normal 0 -1 0
    outer loop
      vertex -24 15.600000000000001 0
      vertex -9 15.600000000000001 0
      vertex -9 15.600000000000001 16
    endloop
  endfacet
  facet normal 0 1 0
    outer loop
      vertex -24 18 0
      vertex -24 18 16
      vertex -9 18 16
    endloop
  endfacet
  facet normal 0 1 0
    outer loop
      vertex -24 18 0
      vertex -9 18 16
      vertex -9 18 0
    endloop
  endfacet
  facet normal -1 0 0
    outer loop
      vertex -24 15.600000000000001 0
      vertex -24 15.600000000000001 16
      vertex -24 18 16
    endloop
  endfacet
  facet normal -1 0 0
    outer loop
      vertex -24 15.600000000000001 0
      vertex -24 18 16
      vertex -24 18 0
    endloop
  endfacet
  facet normal 1 0 0
    outer loop
      vertex -9 15.600000000000001 0
      vertex -9 18 0
      vertex -9 18 16
    endloop
  endfacet
  facet normal 1 0 0
    outer loop
      vertex -9 15.600000000000001 0
      vertex -9 18 16
      vertex -9 15.600000000000001 16
    endloop
  endfacet
  facet normal 0 0 -1
    outer loop
      vertex 9 15.600000000000001 0
      vertex 24 18 0
      vertex 24 15.600000000000001 0
    endloop
  endfacet
  facet normal 0 0 -1
    outer loop
      vertex 9 15.600000000000001 0
      vertex 9 18 0
      vertex 24 18 0
    endloop
  endfacet
  facet normal 0 0 1
    outer loop
      vertex 9 15.600000000000001 16
      vertex 24 15.600000000000001 16
      vertex 24 18 16
    endloop
  endfacet
  facet normal 0 0 1
    outer loop
      vertex 9 15.600000000000001 16
      vertex 24 18 16
      vertex 9 18 16
    endloop
  endfacet
  facet normal 0 -1 0
    outer loop
      vertex 9 15.600000000000001 0
      vertex 24 15.600000000000001 16
      vertex 9 15.600000000000001 16
    endloop
  endfacet
  facet normal 0 -1 0
    outer loop
      vertex 9 15.600000000000001 0
      vertex 24 15.600000000000001 0
      vertex 24 15.600000000000001 16
    endloop
  endfacet
  facet normal 0 1 0
    outer loop
      vertex 9 18 0
      vertex 9 18 16
      vertex 24 18 16
    endloop
  endfacet
  facet normal 0 1 0
    outer loop
      vertex 9 18 0
      vertex 24 18 16
      vertex 24 18 0
    endloop
  endfacet
  facet normal -1 0 0
    outer loop
      vertex 9 15.600000000000001 0
      vertex 9 15.600000000000001 16
      vertex 9 18 16
    endloop
  endfacet
  facet normal -1 0 0
    outer loop
      vertex 9 15.600000000000001 0
      vertex 9 18 16
      vertex 9 18 0
    endloop
  endfacet
  facet normal 1 0 0
    outer loop
      vertex 24 15.600000000000001 0
      vertex 24 18 0
      vertex 24 18 16
    endloop
  endfacet
  facet normal 1 0 0
    outer loop
      vertex 24 15.600000000000001 0
      vertex 24 18 16
      vertex 24 15.600000000000001 16
    endloop
  endfacet
endsolid arca-core-v0-mini-tray-48x36x16
