solid arca-core-v0-devkit-tray-70x45x18
  facet normal 0 0 -1
    outer loop
      vertex -35 -22.5 0
      vertex 35 22.5 0
      vertex 35 -22.5 0
    endloop
  endfacet
  facet normal 0 0 -1
    outer loop
      vertex -35 -22.5 0
      vertex -35 22.5 0
      vertex 35 22.5 0
    endloop
  endfacet
  facet normal 0 0 1
    outer loop
      vertex -35 -22.5 2.2
      vertex 35 -22.5 2.2
      vertex 35 22.5 2.2
    endloop
  endfacet
  facet normal 0 0 1
    outer loop
      vertex -35 -22.5 2.2
      vertex 35 22.5 2.2
      vertex -35 22.5 2.2
    endloop
  endfacet
  facet normal 0 -1 0
    outer loop
      vertex -35 -22.5 0
      vertex 35 -22.5 2.2
      vertex -35 -22.5 2.2
    endloop
  endfacet
  facet normal 0 -1 0
    outer loop
      vertex -35 -22.5 0
      vertex 35 -22.5 0
      vertex 35 -22.5 2.2
    endloop
  endfacet
  facet normal 0 1 0
    outer loop
      vertex -35 22.5 0
      vertex -35 22.5 2.2
      vertex 35 22.5 2.2
    endloop
  endfacet
  facet normal 0 1 0
    outer loop
      vertex -35 22.5 0
      vertex 35 22.5 2.2
      vertex 35 22.5 0
    endloop
  endfacet
  facet normal -1 0 0
    outer loop
      vertex -35 -22.5 0
      vertex -35 -22.5 2.2
      vertex -35 22.5 2.2
    endloop
  endfacet
  facet normal -1 0 0
    outer loop
      vertex -35 -22.5 0
      vertex -35 22.5 2.2
      vertex -35 22.5 0
    endloop
  endfacet
  facet normal 1 0 0
    outer loop
      vertex 35 -22.5 0
      vertex 35 22.5 0
      vertex 35 22.5 2.2
    endloop
  endfacet
  facet normal 1 0 0
    outer loop
      vertex 35 -22.5 0
      vertex 35 22.5 2.2
      vertex 35 -22.5 2.2
    endloop
  endfacet
  facet normal 0 0 -1
    outer loop
      vertex -35 -22.5 0
      vertex -32.599999999999994 22.5 0
      vertex -32.599999999999994 -22.5 0
    endloop
  endfacet
  facet normal 0 0 -1
    outer loop
      vertex -35 -22.5 0
      vertex -35 22.5 0
      vertex -32.599999999999994 22.5 0
    endloop
  endfacet
  facet normal 0 0 1
    outer loop
      vertex -35 -22.5 18
      vertex -32.599999999999994 -22.5 18
      vertex -32.599999999999994 22.5 18
    endloop
  endfacet
  facet normal 0 0 1
    outer loop
      vertex -35 -22.5 18
      vertex -32.599999999999994 22.5 18
      vertex -35 22.5 18
    endloop
  endfacet
  facet normal 0 -1 0
    outer loop
      vertex -35 -22.5 0
      vertex -32.599999999999994 -22.5 18
      vertex -35 -22.5 18
    endloop
  endfacet
  facet normal 0 -1 0
    outer loop
      vertex -35 -22.5 0
      vertex -32.599999999999994 -22.5 0
      vertex -32.599999999999994 -22.5 18
    endloop
  endfacet
  facet normal 0 1 0
    outer loop
      vertex -35 22.5 0
      vertex -35 22.5 18
      vertex -32.599999999999994 22.5 18
    endloop
  endfacet
  facet normal 0 1 0
    outer loop
      vertex -35 22.5 0
      vertex -32.599999999999994 22.5 18
      vertex -32.599999999999994 22.5 0
    endloop
  endfacet
  facet normal -1 0 0
    outer loop
      vertex -35 -22.5 0
      vertex -35 -22.5 18
      vertex -35 22.5 18
    endloop
  endfacet
  facet normal -1 0 0
    outer loop
      vertex -35 -22.5 0
      vertex -35 22.5 18
      vertex -35 22.5 0
    endloop
  endfacet
  facet normal 1 0 0
    outer loop
      vertex -32.599999999999994 -22.5 0
      vertex -32.599999999999994 22.5 0
      vertex -32.599999999999994 22.5 18
    endloop
  endfacet
  facet normal 1 0 0
    outer loop
      vertex -32.599999999999994 -22.5 0
      vertex -32.599999999999994 22.5 18
      vertex -32.599999999999994 -22.5 18
    endloop
  endfacet
  facet normal 0 0 -1
    outer loop
      vertex 32.599999999999994 -22.5 0
      vertex 35 22.5 0
      vertex 35 -22.5 0
    endloop
  endfacet
  facet normal 0 0 -1
    outer loop
      vertex 32.599999999999994 -22.5 0
      vertex 32.599999999999994 22.5 0
      vertex 35 22.5 0
    endloop
  endfacet
  facet normal 0 0 1
    outer loop
      vertex 32.599999999999994 -22.5 18
      vertex 35 -22.5 18
      vertex 35 22.5 18
    endloop
  endfacet
  facet normal 0 0 1
    outer loop
      vertex 32.599999999999994 -22.5 18
      vertex 35 22.5 18
      vertex 32.599999999999994 22.5 18
    endloop
  endfacet
  facet normal 0 -1 0
    outer loop
      vertex 32.599999999999994 -22.5 0
      vertex 35 -22.5 18
      vertex 32.599999999999994 -22.5 18
    endloop
  endfacet
  facet normal 0 -1 0
    outer loop
      vertex 32.599999999999994 -22.5 0
      vertex 35 -22.5 0
      vertex 35 -22.5 18
    endloop
  endfacet
  facet normal 0 1 0
    outer loop
      vertex 32.599999999999994 22.5 0
      vertex 32.599999999999994 22.5 18
      vertex 35 22.5 18
    endloop
  endfacet
  facet normal 0 1 0
    outer loop
      vertex 32.599999999999994 22.5 0
      vertex 35 22.5 18
      vertex 35 22.5 0
    endloop
  endfacet
  facet normal -1 0 0
    outer loop
      vertex 32.599999999999994 -22.5 0
      vertex 32.599999999999994 -22.5 18
      vertex 32.599999999999994 22.5 18
    endloop
  endfacet
  facet normal -1 0 0
    outer loop
      vertex 32.599999999999994 -22.5 0
      vertex 32.599999999999994 22.5 18
      vertex 32.599999999999994 22.5 0
    endloop
  endfacet
  facet normal 1 0 0
    outer loop
      vertex 35 -22.5 0
      vertex 35 22.5 0
      vertex 35 22.5 18
    endloop
  endfacet
  facet normal 1 0 0
    outer loop
      vertex 35 -22.5 0
      vertex 35 22.5 18
      vertex 35 -22.5 18
    endloop
  endfacet
  facet normal 0 0 -1
    outer loop
      vertex -35 -22.5 0
      vertex 35 -20.1 0
      vertex 35 -22.5 0
    endloop
  endfacet
  facet normal 0 0 -1
    outer loop
      vertex -35 -22.5 0
      vertex -35 -20.1 0
      vertex 35 -20.1 0
    endloop
  endfacet
  facet normal 0 0 1
    outer loop
      vertex -35 -22.5 18
      vertex 35 -22.5 18
      vertex 35 -20.1 18
    endloop
  endfacet
  facet normal 0 0 1
    outer loop
      vertex -35 -22.5 18
      vertex 35 -20.1 18
      vertex -35 -20.1 18
    endloop
  endfacet
  facet normal 0 -1 0
    outer loop
      vertex -35 -22.5 0
      vertex 35 -22.5 18
      vertex -35 -22.5 18
    endloop
  endfacet
  facet normal 0 -1 0
    outer loop
      vertex -35 -22.5 0
      vertex 35 -22.5 0
      vertex 35 -22.5 18
    endloop
  endfacet
  facet normal 0 1 0
    outer loop
      vertex -35 -20.1 0
      vertex -35 -20.1 18
      vertex 35 -20.1 18
    endloop
  endfacet
  facet normal 0 1 0
    outer loop
      vertex -35 -20.1 0
      vertex 35 -20.1 18
      vertex 35 -20.1 0
    endloop
  endfacet
  facet normal -1 0 0
    outer loop
      vertex -35 -22.5 0
      vertex -35 -22.5 18
      vertex -35 -20.1 18
    endloop
  endfacet
  facet normal -1 0 0
    outer loop
      vertex -35 -22.5 0
      vertex -35 -20.1 18
      vertex -35 -20.1 0
    endloop
  endfacet
  facet normal 1 0 0
    outer loop
      vertex 35 -22.5 0
      vertex 35 -20.1 0
      vertex 35 -20.1 18
    endloop
  endfacet
  facet normal 1 0 0
    outer loop
      vertex 35 -22.5 0
      vertex 35 -20.1 18
      vertex 35 -22.5 18
    endloop
  endfacet
  facet normal 0 0 -1
    outer loop
      vertex -35 20.1 0
      vertex -9 22.5 0
      vertex -9 20.1 0
    endloop
  endfacet
  facet normal 0 0 -1
    outer loop
      vertex -35 20.1 0
      vertex -35 22.5 0
      vertex -9 22.5 0
    endloop
  endfacet
  facet normal 0 0 1
    outer loop
      vertex -35 20.1 18
      vertex -9 20.1 18
      vertex -9 22.5 18
    endloop
  endfacet
  facet normal 0 0 1
    outer loop
      vertex -35 20.1 18
      vertex -9 22.5 18
      vertex -35 22.5 18
    endloop
  endfacet
  facet normal 0 -1 0
    outer loop
      vertex -35 20.1 0
      vertex -9 20.1 18
      vertex -35 20.1 18
    endloop
  endfacet
  facet normal 0 -1 0
    outer loop
      vertex -35 20.1 0
      vertex -9 20.1 0
      vertex -9 20.1 18
    endloop
  endfacet
  facet normal 0 1 0
    outer loop
      vertex -35 22.5 0
      vertex -35 22.5 18
      vertex -9 22.5 18
    endloop
  endfacet
  facet normal 0 1 0
    outer loop
      vertex -35 22.5 0
      vertex -9 22.5 18
      vertex -9 22.5 0
    endloop
  endfacet
  facet normal -1 0 0
    outer loop
      vertex -35 20.1 0
      vertex -35 20.1 18
      vertex -35 22.5 18
    endloop
  endfacet
  facet normal -1 0 0
    outer loop
      vertex -35 20.1 0
      vertex -35 22.5 18
      vertex -35 22.5 0
    endloop
  endfacet
  facet normal 1 0 0
    outer loop
      vertex -9 20.1 0
      vertex -9 22.5 0
      vertex -9 22.5 18
    endloop
  endfacet
  facet normal 1 0 0
    outer loop
      vertex -9 20.1 0
      vertex -9 22.5 18
      vertex -9 20.1 18
    endloop
  endfacet
  facet normal 0 0 -1
    outer loop
      vertex 9 20.1 0
      vertex 35 22.5 0
      vertex 35 20.1 0
    endloop
  endfacet
  facet normal 0 0 -1
    outer loop
      vertex 9 20.1 0
      vertex 9 22.5 0
      vertex 35 22.5 0
    endloop
  endfacet
  facet normal 0 0 1
    outer loop
      vertex 9 20.1 18
      vertex 35 20.1 18
      vertex 35 22.5 18
    endloop
  endfacet
  facet normal 0 0 1
    outer loop
      vertex 9 20.1 18
      vertex 35 22.5 18
      vertex 9 22.5 18
    endloop
  endfacet
  facet normal 0 -1 0
    outer loop
      vertex 9 20.1 0
      vertex 35 20.1 18
      vertex 9 20.1 18
    endloop
  endfacet
  facet normal 0 -1 0
    outer loop
      vertex 9 20.1 0
      vertex 35 20.1 0
      vertex 35 20.1 18
    endloop
  endfacet
  facet normal 0 1 0
    outer loop
      vertex 9 22.5 0
      vertex 9 22.5 18
      vertex 35 22.5 18
    endloop
  endfacet
  facet normal 0 1 0
    outer loop
      vertex 9 22.5 0
      vertex 35 22.5 18
      vertex 35 22.5 0
    endloop
  endfacet
  facet normal -1 0 0
    outer loop
      vertex 9 20.1 0
      vertex 9 20.1 18
      vertex 9 22.5 18
    endloop
  endfacet
  facet normal -1 0 0
    outer loop
      vertex 9 20.1 0
      vertex 9 22.5 18
      vertex 9 22.5 0
    endloop
  endfacet
  facet normal 1 0 0
    outer loop
      vertex 35 20.1 0
      vertex 35 22.5 0
      vertex 35 22.5 18
    endloop
  endfacet
  facet normal 1 0 0
    outer loop
      vertex 35 20.1 0
      vertex 35 22.5 18
      vertex 35 20.1 18
    endloop
  endfacet
endsolid arca-core-v0-devkit-tray-70x45x18
