solid arca-oled-096-test-frame
  facet normal 0 0 -1
    outer loop
      vertex -16 -15.5 0
      vertex 16 -12 0
      vertex 16 -15.5 0
    endloop
  endfacet
  facet normal 0 0 -1
    outer loop
      vertex -16 -15.5 0
      vertex -16 -12 0
      vertex 16 -12 0
    endloop
  endfacet
  facet normal 0 0 1
    outer loop
      vertex -16 -15.5 2.4
      vertex 16 -15.5 2.4
      vertex 16 -12 2.4
    endloop
  endfacet
  facet normal 0 0 1
    outer loop
      vertex -16 -15.5 2.4
      vertex 16 -12 2.4
      vertex -16 -12 2.4
    endloop
  endfacet
  facet normal 0 -1 0
    outer loop
      vertex -16 -15.5 0
      vertex 16 -15.5 2.4
      vertex -16 -15.5 2.4
    endloop
  endfacet
  facet normal 0 -1 0
    outer loop
      vertex -16 -15.5 0
      vertex 16 -15.5 0
      vertex 16 -15.5 2.4
    endloop
  endfacet
  facet normal 0 1 0
    outer loop
      vertex -16 -12 0
      vertex -16 -12 2.4
      vertex 16 -12 2.4
    endloop
  endfacet
  facet normal 0 1 0
    outer loop
      vertex -16 -12 0
      vertex 16 -12 2.4
      vertex 16 -12 0
    endloop
  endfacet
  facet normal -1 0 0
    outer loop
      vertex -16 -15.5 0
      vertex -16 -15.5 2.4
      vertex -16 -12 2.4
    endloop
  endfacet
  facet normal -1 0 0
    outer loop
      vertex -16 -15.5 0
      vertex -16 -12 2.4
      vertex -16 -12 0
    endloop
  endfacet
  facet normal 1 0 0
    outer loop
      vertex 16 -15.5 0
      vertex 16 -12 0
      vertex 16 -12 2.4
    endloop
  endfacet
  facet normal 1 0 0
    outer loop
      vertex 16 -15.5 0
      vertex 16 -12 2.4
      vertex 16 -15.5 2.4
    endloop
  endfacet
  facet normal 0 0 -1
    outer loop
      vertex -16 12 0
      vertex 16 15.5 0
      vertex 16 12 0
    endloop
  endfacet
  facet normal 0 0 -1
    outer loop
      vertex -16 12 0
      vertex -16 15.5 0
      vertex 16 15.5 0
    endloop
  endfacet
  facet normal 0 0 1
    outer loop
      vertex -16 12 2.4
      vertex 16 12 2.4
      vertex 16 15.5 2.4
    endloop
  endfacet
  facet normal 0 0 1
    outer loop
      vertex -16 12 2.4
      vertex 16 15.5 2.4
      vertex -16 15.5 2.4
    endloop
  endfacet
  facet normal 0 -1 0
    outer loop
      vertex -16 12 0
      vertex 16 12 2.4
      vertex -16 12 2.4
    endloop
  endfacet
  facet normal 0 -1 0
    outer loop
      vertex -16 12 0
      vertex 16 12 0
      vertex 16 12 2.4
    endloop
  endfacet
  facet normal 0 1 0
    outer loop
      vertex -16 15.5 0
      vertex -16 15.5 2.4
      vertex 16 15.5 2.4
    endloop
  endfacet
  facet normal 0 1 0
    outer loop
      vertex -16 15.5 0
      vertex 16 15.5 2.4
      vertex 16 15.5 0
    endloop
  endfacet
  facet normal -1 0 0
    outer loop
      vertex -16 12 0
      vertex -16 12 2.4
      vertex -16 15.5 2.4
    endloop
  endfacet
  facet normal -1 0 0
    outer loop
      vertex -16 12 0
      vertex -16 15.5 2.4
      vertex -16 15.5 0
    endloop
  endfacet
  facet normal 1 0 0
    outer loop
      vertex 16 12 0
      vertex 16 15.5 0
      vertex 16 15.5 2.4
    endloop
  endfacet
  facet normal 1 0 0
    outer loop
      vertex 16 12 0
      vertex 16 15.5 2.4
      vertex 16 12 2.4
    endloop
  endfacet
  facet normal 0 0 -1
    outer loop
      vertex -15.75 -6.75 0
      vertex -12.25 6.75 0
      vertex -12.25 -6.75 0
    endloop
  endfacet
  facet normal 0 0 -1
    outer loop
      vertex -15.75 -6.75 0
      vertex -15.75 6.75 0
      vertex -12.25 6.75 0
    endloop
  endfacet
  facet normal 0 0 1
    outer loop
      vertex -15.75 -6.75 2.4
      vertex -12.25 -6.75 2.4
      vertex -12.25 6.75 2.4
    endloop
  endfacet
  facet normal 0 0 1
    outer loop
      vertex -15.75 -6.75 2.4
      vertex -12.25 6.75 2.4
      vertex -15.75 6.75 2.4
    endloop
  endfacet
  facet normal 0 -1 0
    outer loop
      vertex -15.75 -6.75 0
      vertex -12.25 -6.75 2.4
      vertex -15.75 -6.75 2.4
    endloop
  endfacet
  facet normal 0 -1 0
    outer loop
      vertex -15.75 -6.75 0
      vertex -12.25 -6.75 0
      vertex -12.25 -6.75 2.4
    endloop
  endfacet
  facet normal 0 1 0
    outer loop
      vertex -15.75 6.75 0
      vertex -15.75 6.75 2.4
      vertex -12.25 6.75 2.4
    endloop
  endfacet
  facet normal 0 1 0
    outer loop
      vertex -15.75 6.75 0
      vertex -12.25 6.75 2.4
      vertex -12.25 6.75 0
    endloop
  endfacet
  facet normal -1 0 0
    outer loop
      vertex -15.75 -6.75 0
      vertex -15.75 -6.75 2.4
      vertex -15.75 6.75 2.4
    endloop
  endfacet
  facet normal -1 0 0
    outer loop
      vertex -15.75 -6.75 0
      vertex -15.75 6.75 2.4
      vertex -15.75 6.75 0
    endloop
  endfacet
  facet normal 1 0 0
    outer loop
      vertex -12.25 -6.75 0
      vertex -12.25 6.75 0
      vertex -12.25 6.75 2.4
    endloop
  endfacet
  facet normal 1 0 0
    outer loop
      vertex -12.25 -6.75 0
      vertex -12.25 6.75 2.4
      vertex -12.25 -6.75 2.4
    endloop
  endfacet
  facet normal 0 0 -1
    outer loop
      vertex 12.25 -6.75 0
      vertex 15.75 6.75 0
      vertex 15.75 -6.75 0
    endloop
  endfacet
  facet normal 0 0 -1
    outer loop
      vertex 12.25 -6.75 0
      vertex 12.25 6.75 0
      vertex 15.75 6.75 0
    endloop
  endfacet
  facet normal 0 0 1
    outer loop
      vertex 12.25 -6.75 2.4
      vertex 15.75 -6.75 2.4
      vertex 15.75 6.75 2.4
    endloop
  endfacet
  facet normal 0 0 1
    outer loop
      vertex 12.25 -6.75 2.4
      vertex 15.75 6.75 2.4
      vertex 12.25 6.75 2.4
    endloop
  endfacet
  facet normal 0 -1 0
    outer loop
      vertex 12.25 -6.75 0
      vertex 15.75 -6.75 2.4
      vertex 12.25 -6.75 2.4
    endloop
  endfacet
  facet normal 0 -1 0
    outer loop
      vertex 12.25 -6.75 0
      vertex 15.75 -6.75 0
      vertex 15.75 -6.75 2.4
    endloop
  endfacet
  facet normal 0 1 0
    outer loop
      vertex 12.25 6.75 0
      vertex 12.25 6.75 2.4
      vertex 15.75 6.75 2.4
    endloop
  endfacet
  facet normal 0 1 0
    outer loop
      vertex 12.25 6.75 0
      vertex 15.75 6.75 2.4
      vertex 15.75 6.75 0
    endloop
  endfacet
  facet normal -1 0 0
    outer loop
      vertex 12.25 -6.75 0
      vertex 12.25 -6.75 2.4
      vertex 12.25 6.75 2.4
    endloop
  endfacet
  facet normal -1 0 0
    outer loop
      vertex 12.25 -6.75 0
      vertex 12.25 6.75 2.4
      vertex 12.25 6.75 0
    endloop
  endfacet
  facet normal 1 0 0
    outer loop
      vertex 15.75 -6.75 0
      vertex 15.75 6.75 0
      vertex 15.75 6.75 2.4
    endloop
  endfacet
  facet normal 1 0 0
    outer loop
      vertex 15.75 -6.75 0
      vertex 15.75 6.75 2.4
      vertex 15.75 -6.75 2.4
    endloop
  endfacet
  facet normal 0 0 -1
    outer loop
      vertex -15.75 -10.25 0
      vertex 15.75 -6.75 0
      vertex 15.75 -10.25 0
    endloop
  endfacet
  facet normal 0 0 -1
    outer loop
      vertex -15.75 -10.25 0
      vertex -15.75 -6.75 0
      vertex 15.75 -6.75 0
    endloop
  endfacet
  facet normal 0 0 1
    outer loop
      vertex -15.75 -10.25 2.4
      vertex 15.75 -10.25 2.4
      vertex 15.75 -6.75 2.4
    endloop
  endfacet
  facet normal 0 0 1
    outer loop
      vertex -15.75 -10.25 2.4
      vertex 15.75 -6.75 2.4
      vertex -15.75 -6.75 2.4
    endloop
  endfacet
  facet normal 0 -1 0
    outer loop
      vertex -15.75 -10.25 0
      vertex 15.75 -10.25 2.4
      vertex -15.75 -10.25 2.4
    endloop
  endfacet
  facet normal 0 -1 0
    outer loop
      vertex -15.75 -10.25 0
      vertex 15.75 -10.25 0
      vertex 15.75 -10.25 2.4
    endloop
  endfacet
  facet normal 0 1 0
    outer loop
      vertex -15.75 -6.75 0
      vertex -15.75 -6.75 2.4
      vertex 15.75 -6.75 2.4
    endloop
  endfacet
  facet normal 0 1 0
    outer loop
      vertex -15.75 -6.75 0
      vertex 15.75 -6.75 2.4
      vertex 15.75 -6.75 0
    endloop
  endfacet
  facet normal -1 0 0
    outer loop
      vertex -15.75 -10.25 0
      vertex -15.75 -10.25 2.4
      vertex -15.75 -6.75 2.4
    endloop
  endfacet
  facet normal -1 0 0
    outer loop
      vertex -15.75 -10.25 0
      vertex -15.75 -6.75 2.4
      vertex -15.75 -6.75 0
    endloop
  endfacet
  facet normal 1 0 0
    outer loop
      vertex 15.75 -10.25 0
      vertex 15.75 -6.75 0
      vertex 15.75 -6.75 2.4
    endloop
  endfacet
  facet normal 1 0 0
    outer loop
      vertex 15.75 -10.25 0
      vertex 15.75 -6.75 2.4
      vertex 15.75 -10.25 2.4
    endloop
  endfacet
  facet normal 0 0 -1
    outer loop
      vertex -15.75 6.75 0
      vertex 15.75 10.25 0
      vertex 15.75 6.75 0
    endloop
  endfacet
  facet normal 0 0 -1
    outer loop
      vertex -15.75 6.75 0
      vertex -15.75 10.25 0
      vertex 15.75 10.25 0
    endloop
  endfacet
  facet normal 0 0 1
    outer loop
      vertex -15.75 6.75 2.4
      vertex 15.75 6.75 2.4
      vertex 15.75 10.25 2.4
    endloop
  endfacet
  facet normal 0 0 1
    outer loop
      vertex -15.75 6.75 2.4
      vertex 15.75 10.25 2.4
      vertex -15.75 10.25 2.4
    endloop
  endfacet
  facet normal 0 -1 0
    outer loop
      vertex -15.75 6.75 0
      vertex 15.75 6.75 2.4
      vertex -15.75 6.75 2.4
    endloop
  endfacet
  facet normal 0 -1 0
    outer loop
      vertex -15.75 6.75 0
      vertex 15.75 6.75 0
      vertex 15.75 6.75 2.4
    endloop
  endfacet
  facet normal 0 1 0
    outer loop
      vertex -15.75 10.25 0
      vertex -15.75 10.25 2.4
      vertex 15.75 10.25 2.4
    endloop
  endfacet
  facet normal 0 1 0
    outer loop
      vertex -15.75 10.25 0
      vertex 15.75 10.25 2.4
      vertex 15.75 10.25 0
    endloop
  endfacet
  facet normal -1 0 0
    outer loop
      vertex -15.75 6.75 0
      vertex -15.75 6.75 2.4
      vertex -15.75 10.25 2.4
    endloop
  endfacet
  facet normal -1 0 0
    outer loop
      vertex -15.75 6.75 0
      vertex -15.75 10.25 2.4
      vertex -15.75 10.25 0
    endloop
  endfacet
  facet normal 1 0 0
    outer loop
      vertex 15.75 6.75 0
      vertex 15.75 10.25 0
      vertex 15.75 10.25 2.4
    endloop
  endfacet
  facet normal 1 0 0
    outer loop
      vertex 15.75 6.75 0
      vertex 15.75 10.25 2.4
      vertex 15.75 6.75 2.4
    endloop
  endfacet
endsolid arca-oled-096-test-frame
